<svg width="165" height="208" viewBox="0 0 165 208" fill="none" xmlns="http://www.w3.org/2000/svg">
<path d="M9.7293 146.1V153.7L41.6293 173.5L44.6293 167L16.7293 149.9L44.6293 132.9L41.8293 126.3L9.7293 146.1ZM155.19 146.1L123.19 126.3L120.39 132.9L148.29 149.9L120.39 167L123.39 173.5L155.19 153.7V146.1Z" fill="#2B384B"/>
<path d="M68.0152 101.13L109.816 139.277L105.064 195.668L63.2632 157.521L68.0152 101.13Z" fill="#3B3E42"/>
<path d="M9.7293 58.1V65.7L41.6293 85.5L44.6293 79L16.7293 61.9L44.6293 44.9L41.8293 38.3L9.7293 58.1ZM155.19 58.1L123.19 38.3L120.39 44.9L148.29 61.9L120.39 79L123.39 85.5L155.19 65.7V58.1Z" fill="#2B384B"/>
<path d="M105.328 9.1227L110.078 65.5135L68.2759 103.659L63.5258 47.2681L105.328 9.1227Z" fill="#DA393A"/>
</svg>
